<svg viewBox="0 0 100 100" xmlns="http://www.w3.org/2000/svg">
  <defs>
    <linearGradient id="maneGradient" x1="0%" y1="0%" x2="100%" y2="0%">
      <stop offset="0%" style="stop-color:#f9a8d4;stop-opacity:1" />
      <stop offset="100%" style="stop-color:#93c5fd;stop-opacity:1" />
    </linearGradient>
  </defs>
  <!-- Body -->
  <path d="M30,65 Q45,75 60,65 Q70,55 70,40 Q70,25 60,20 Q45,15 30,20 Q20,25 20,40 Q20,55 30,65" 
        fill="#fce7f3" stroke="#f9a8d4" stroke-width="2"/>
  <!-- Horn -->
  <path d="M45,20 Q45,10 50,5 Q55,10 55,20" 
        fill="url(#maneGradient)" stroke="#93c5fd" stroke-width="2"/>
  <!-- Mane -->
  <path d="M25,30 Q45,25 65,30" 
        fill="none" stroke="url(#maneGradient)" stroke-width="4" stroke-linecap="round"/>
  <!-- Eyes -->
  <circle cx="35" cy="40" r="3" fill="#7c3aed"/>
  <circle cx="55" cy="40" r="3" fill="#7c3aed"/>
  <!-- Smile -->
  <path d="M40,50 Q45,55 50,50" 
        fill="none" stroke="#7c3aed" stroke-width="2" stroke-linecap="round"/>
  <!-- Sparkles -->
  <circle cx="25" cy="25" r="2" fill="#93c5fd">
    <animate attributeName="opacity" values="0;1;0" dur="2s" repeatCount="indefinite"/>
  </circle>
  <circle cx="65" cy="25" r="2" fill="#f9a8d4">
    <animate attributeName="opacity" values="0;1;0" dur="2s" repeatCount="indefinite" begin="1s"/>
  </circle>
</svg>
